# 3ds Max Wavefront OBJ Exporter v0.97b - (c)2007 guruware
# File Created: 13.12.2013 20:06:17

mtllib Treadmill.mtl

#
# object Treadmill
#

v  -19.3236 44.4061 -38.1654
v  -19.3236 47.6530 -38.1654
v  19.3236 47.6530 -38.1654
v  19.3236 44.4061 -38.1654
v  -17.8202 41.9180 -14.0794
v  -17.8202 44.4380 -14.0794
v  -19.8710 44.4380 -14.2065
v  -19.8710 41.9180 -14.2065
v  20.4304 42.4893 -29.4460
v  14.5580 42.4893 -29.4460
v  -14.5580 42.4893 -29.4460
v  -20.4304 42.4893 -29.4460
v  -20.4304 45.7282 -29.2922
v  -14.5580 45.7282 -29.2922
v  -18.2185 54.4555 -41.6872
v  18.2185 54.4555 -41.6872
v  -19.3236 53.3142 -36.0556
v  14.5580 45.7282 -29.2922
v  -19.3687 0.0000 -30.0208
v  -17.9388 0.0000 -30.0208
v  -17.9388 45.2632 -30.0208
v  -19.3687 45.2632 -30.0208
v  -17.9388 0.0000 -34.5213
v  -17.9388 45.2632 -34.5213
v  -19.3687 0.0000 -34.5213
v  -19.3687 45.2632 -34.5213
v  -18.1279 0.0000 -19.2798
v  18.1279 0.0000 -19.2798
v  18.1279 0.0000 44.6470
v  -18.1279 0.0000 44.6470
v  18.1279 5.4266 44.6470
v  18.1279 5.9751 -19.2798
v  -18.1279 5.9751 -19.2798
v  -18.1279 5.4266 44.6470
v  -18.1279 0.0000 -27.7140
v  -18.1279 10.0110 -27.7140
v  -18.1279 10.0110 -38.7412
v  -18.1279 0.0000 -38.7412
v  18.1279 10.0110 -38.7412
v  18.1279 0.0000 -38.7412
v  17.8202 41.9180 -14.0794
v  19.8710 41.9180 -14.2065
v  19.8710 44.4380 -14.2065
v  17.8202 44.4380 -14.0794
v  20.4304 45.7282 -29.2922
v  19.3236 53.3142 -36.0556
v  19.3687 0.0000 -30.0208
v  19.3687 45.2632 -30.0208
v  17.9388 45.2632 -30.0208
v  17.9388 0.0000 -30.0208
v  17.9388 45.2632 -34.5213
v  17.9388 0.0000 -34.5213
v  19.3687 45.2632 -34.5213
v  19.3687 0.0000 -34.5213
v  18.1279 0.0000 -27.7140
v  18.1279 10.0110 -27.7140
# 56 vertices

vn 0.0000 0.0000 -1.0000
vn -0.0619 -0.0000 0.9981
vn 0.0000 -0.9767 -0.2147
vn -0.0000 -0.9923 -0.1240
vn -0.0001 -0.9869 -0.1616
vn 0.0001 -0.9869 -0.1616
vn 0.0000 -0.9923 -0.1240
vn -0.9923 0.0012 -0.1240
vn -0.9992 0.0020 -0.0397
vn -0.9988 0.0017 -0.0489
vn -0.9923 0.0000 -0.1238
vn -0.9993 -0.0000 0.0367
vn -0.9993 -0.0002 0.0367
vn -0.0040 0.9965 0.0838
vn -0.0052 0.9965 0.0834
vn -0.0005 0.9964 0.0850
vn 0.0000 0.9964 0.0852
vn 0.0000 -0.4598 -0.8880
vn -0.9888 0.0521 -0.1398
vn 0.0018 -0.9993 -0.0368
vn 0.0023 -0.9993 -0.0367
vn 0.0000 -0.0474 0.9989
vn 0.9782 -0.0012 0.2078
vn 0.9782 -0.0000 0.2077
vn 0.9779 -0.0089 0.2087
vn 0.9779 -0.0099 0.2089
vn 0.0000 -0.0000 1.0000
vn 1.0000 0.0000 -0.0000
vn -1.0000 0.0000 -0.0000
vn 0.0000 -1.0000 -0.0000
vn 0.0000 1.0000 0.0086
vn 0.0000 0.9742 0.2255
vn -1.0000 -0.0000 0.0000
vn -1.0000 0.0000 0.0000
vn 0.0619 -0.0000 0.9981
vn 0.9923 0.0012 -0.1240
vn 0.9923 0.0000 -0.1238
vn 0.9988 0.0017 -0.0489
vn 0.9992 0.0020 -0.0397
vn 0.0000 0.9801 0.1986
vn 0.9993 -0.0002 0.0367
vn 0.9993 -0.0000 0.0367
vn 0.0040 0.9965 0.0838
vn -0.0000 0.9964 0.0852
vn 0.0005 0.9964 0.0850
vn 0.0052 0.9965 0.0834
vn 0.9888 0.0521 -0.1398
vn -0.0000 0.6655 0.7464
vn 0.0000 0.6655 0.7464
vn -0.0018 -0.9993 -0.0368
vn -0.0023 -0.9993 -0.0367
vn -0.9782 -0.0012 0.2078
vn -0.9779 -0.0099 0.2089
vn -0.9779 -0.0089 0.2087
vn -0.9782 -0.0000 0.2077
vn 1.0000 -0.0000 0.0000
vn 1.0000 0.0000 0.0000
vn 0.0000 1.0000 -0.0000
vn 0.0000 0.9752 0.2213
# 59 vertex normals

vt 0.4026 0.9823 0.0000
vt 0.3807 0.9823 0.0000
vt 0.3807 0.7425 0.0000
vt 0.4026 0.7425 0.0000
vt 0.2659 0.9014 0.0000
vt 0.2659 0.9274 0.0000
vt 0.2411 0.9274 0.0000
vt 0.2411 0.9014 0.0000
vt 0.0273 0.6759 0.0000
vt 0.2435 0.6759 0.0000
vt 0.2497 0.6112 0.0000
vt 0.2169 0.6112 0.0000
vt 0.0539 0.6112 0.0000
vt 0.0211 0.6112 0.0000
vt 0.0479 0.4792 0.0000
vt 0.1012 0.4625 0.0000
vt 0.1021 0.4906 0.0000
vt 0.0479 0.5073 0.0000
vt 0.1943 0.4576 0.0000
vt 0.1943 0.4794 0.0000
vt 0.0440 0.0426 0.0000
vt 0.0696 0.0405 0.0000
vt 0.0931 0.1474 0.0000
vt 0.0434 0.1483 0.0000
vt 0.3291 0.9754 0.0000
vt 0.3291 0.7494 0.0000
vt 0.0608 0.5565 0.0000
vt 0.0264 0.5664 0.0000
vt 0.0242 0.5919 0.0000
vt 0.0357 0.5919 0.0000
vt 0.0241 0.9819 0.0000
vt 0.0241 0.9423 0.0000
vt 0.3203 0.9423 0.0000
vt 0.3203 0.9819 0.0000
vt 0.0255 0.9188 0.0000
vt 0.0255 0.9006 0.0000
vt 0.1164 0.9047 0.0000
vt 0.1156 0.9281 0.0000
vt 0.7000 0.5426 0.0000
vt 0.7523 0.5426 0.0000
vt 0.7523 0.7124 0.0000
vt 0.7000 0.7124 0.0000
vt 0.7451 0.0123 0.0000
vt 0.6983 0.0123 0.0000
vt 0.6983 0.5338 0.0000
vt 0.7451 0.5338 0.0000
vt 0.9028 0.5449 0.0000
vt 0.8560 0.5449 0.0000
vt 0.8560 0.7101 0.0000
vt 0.9028 0.7101 0.0000
vt 0.7623 0.0123 0.0000
vt 0.8091 0.0123 0.0000
vt 0.8091 0.5338 0.0000
vt 0.7623 0.5338 0.0000
vt 0.1088 0.7113 0.0000
vt 0.1088 0.8266 0.0000
vt 0.3099 0.8266 0.0000
vt 0.3099 0.7113 0.0000
vt 0.6745 0.6542 0.0000
vt 0.3658 0.6542 0.0000
vt 0.3658 0.4433 0.0000
vt 0.6745 0.4433 0.0000
vt 0.9931 0.8532 0.0000
vt 0.9931 0.8873 0.0000
vt 0.4556 0.8873 0.0000
vt 0.4556 0.8532 0.0000
vt 0.5501 0.9002 0.0000
vt 0.5501 0.9417 0.0000
vt 0.4362 0.9417 0.0000
vt 0.4362 0.9002 0.0000
vt 0.4418 0.7947 0.0000
vt 0.4418 0.8347 0.0000
vt 0.9970 0.8347 0.0000
vt 0.9970 0.7947 0.0000
vt 0.5964 0.9002 0.0000
vt 0.5964 0.9298 0.0000
vt 0.9981 0.9002 0.0000
vt 0.9981 0.9388 0.0000
vt 0.2145 0.9027 0.0000
vt 0.2361 0.9027 0.0000
vt 0.2361 0.9287 0.0000
vt 0.2145 0.9287 0.0000
vt 0.2213 0.5765 0.0000
vt 0.2238 0.5484 0.0000
vt 0.1683 0.5603 0.0000
vt 0.1668 0.5884 0.0000
vt 0.0896 0.3101 0.0000
vt 0.5527 0.3047 0.0000
vt 0.5082 0.3697 0.0000
vt 0.1001 0.3696 0.0000
vt 0.0756 0.5635 0.0000
vt 0.0736 0.5852 0.0000
vt 0.5946 0.0473 0.0000
vt 0.5938 0.1474 0.0000
vt 0.5364 0.1472 0.0000
vt 0.5708 0.0470 0.0000
vt 0.2504 0.4915 0.0000
vt 0.2152 0.4983 0.0000
vt 0.2466 0.5919 0.0000
vt 0.2351 0.5919 0.0000
vt 0.1213 0.9204 0.0000
vt 0.2061 0.9319 0.0000
vt 0.2070 0.9031 0.0000
vt 0.1213 0.8980 0.0000
vt 0.8258 0.5426 0.0000
vt 0.8258 0.7124 0.0000
vt 0.7736 0.7124 0.0000
vt 0.7736 0.5426 0.0000
vt 0.8957 0.0123 0.0000
vt 0.8957 0.5338 0.0000
vt 0.8489 0.5338 0.0000
vt 0.8489 0.0123 0.0000
vt 0.9315 0.5440 0.0000
vt 0.9315 0.7089 0.0000
vt 0.9776 0.7089 0.0000
vt 0.9776 0.5440 0.0000
vt 0.9412 0.0123 0.0000
vt 0.9412 0.5338 0.0000
vt 0.9880 0.5338 0.0000
vt 0.9880 0.0123 0.0000
vt 0.5501 0.9529 0.0000
vt 0.4362 0.9529 0.0000
vt 0.4362 0.9945 0.0000
vt 0.5501 0.9945 0.0000
vt 0.0856 0.7113 0.0000
vt 0.0285 0.7113 0.0000
vt 0.0285 0.8266 0.0000
vt 0.0856 0.8266 0.0000
vt 0.2836 0.6542 0.0000
vt 0.2836 0.4433 0.0000
vt 0.3336 0.4433 0.0000
vt 0.3336 0.6542 0.0000
vt 0.5964 0.9529 0.0000
vt 0.5964 0.9826 0.0000
vt 0.9981 0.9529 0.0000
vt 0.9981 0.9915 0.0000
# 136 texture coords

g Treadmill
usemtl Treadmill
s 2
f 1/1/1 2/2/1 3/3/1 4/4/1 
s 4
f 5/5/2 6/6/2 7/7/2 8/8/2 
s 8
f 1/9/3 4/10/3 9/11/4 10/12/5 
f 1/9/3 10/12/5 11/13/6 12/14/7 
s 64
f 1/15/8 12/16/9 13/17/10 2/18/11 
f 12/16/9 8/19/12 7/20/13 13/17/10 
s 32
f 7/21/14 6/22/15 14/23/16 13/24/17 
s off
f 15/25/18 16/26/18 3/3/18 2/2/18 
f 2/18/19 13/17/19 17/27/19 15/28/19 
s 8
f 8/29/20 12/14/7 11/13/6 5/30/21 
s 1
f 14/31/22 11/32/22 10/33/22 18/34/22 
s 2
f 6/35/23 5/36/24 11/37/25 14/38/26 
s 8
f 19/39/27 20/40/27 21/41/27 22/42/27 
s 16
f 20/43/28 23/44/28 24/45/28 21/46/28 
s 32
f 23/47/1 25/48/1 26/49/1 24/50/1 
s 64
f 25/51/29 19/52/29 22/53/29 26/54/29 
s 2
f 27/55/30 28/56/30 29/57/30 30/58/30 
s 4
f 31/59/31 32/60/32 33/61/32 34/62/31 
s 8
f 29/63/27 31/64/27 34/65/27 30/66/27 
s 64
f 35/67/33 36/68/34 37/69/33 38/70/33 
s 32
f 38/71/1 37/72/1 39/73/1 40/74/1 
s 64
f 27/75/29 33/76/29 36/68/34 35/67/33 
f 30/77/29 34/78/29 33/76/29 27/75/29 
s 4
f 41/79/35 42/80/35 43/81/35 44/82/35 
s 64
f 4/83/36 3/84/37 45/85/38 9/86/39 
s 32
f 17/87/40 46/88/40 16/89/40 15/90/40 
s 64
f 9/86/39 45/85/38 43/91/41 42/92/42 
s 32
f 43/93/43 45/94/44 18/95/45 44/96/46 
s off
f 3/84/47 16/97/47 46/98/47 45/85/47 
f 45/94/48 46/88/48 17/87/48 18/95/48 
f 17/87/49 13/24/49 14/23/49 18/95/49 
s 8
f 42/99/50 41/100/51 10/12/5 9/11/4 
s 2
f 44/101/52 18/102/53 10/103/54 41/104/55 
s 8
f 47/105/27 48/106/27 49/107/27 50/108/27 
s 16
f 50/109/29 49/110/29 51/111/29 52/112/29 
s 32
f 52/113/1 51/114/1 53/115/1 54/116/1 
s 64
f 54/117/28 53/118/28 48/119/28 47/120/28 
f 55/121/56 40/122/56 39/123/56 56/124/57 
s 2
f 35/125/30 38/126/30 40/127/30 55/128/30 
s 4
f 39/129/58 37/130/58 36/131/59 56/132/59 
s 64
f 28/133/28 55/121/56 56/124/57 32/134/28 
s 2
f 27/55/30 35/125/30 55/128/30 28/56/30 
s 4
f 32/60/32 56/132/59 36/131/59 33/61/32 
s 64
f 29/135/28 28/133/28 32/134/28 31/136/28 
# 44 polygons

